solid OpenSCAD_Model
  facet normal -1 0 0
    outer loop
      vertex 0 0.0499992 0
      vertex 0 0 0
      vertex 0 0.0499992 0.4
    endloop
  endfacet
  facet normal -1 0 0
    outer loop
      vertex 0 0.0499992 0.4
      vertex 0 0.4 0.45
      vertex 0 0.4 0.4
    endloop
  endfacet
  facet normal -1 0 0
    outer loop
      vertex 0 0.0499992 0.4
      vertex 0 0 0.45
      vertex 0 0.4 0.45
    endloop
  endfacet
  facet normal -1 0 0
    outer loop
      vertex 0 0 0.45
      vertex 0 0.0499992 0.4
      vertex 0 0 0
    endloop
  endfacet
  facet normal -1 0 0
    outer loop
      vertex 0 0.4 0.4
      vertex 0 0.45 0
      vertex 0 0.4 0
    endloop
  endfacet
  facet normal -1 0 0
    outer loop
      vertex 0 0.45 0
      vertex 0 0.4 0.4
      vertex 0 0.45 0.799999
    endloop
  endfacet
  facet normal -1 0 0
    outer loop
      vertex 0 0.4 0.45
      vertex 0 0.45 0.799999
      vertex 0 0.4 0.4
    endloop
  endfacet
  facet normal -1 -0 0
    outer loop
      vertex 0 0.45 0.799999
      vertex 0 0.4 0.45
      vertex 0 0.4 0.799999
    endloop
  endfacet
  facet normal 0 0 1
    outer loop
      vertex 0.4 0.45 0.45
      vertex 0.0499992 0.45 0.45
      vertex 0.4 0.4 0.45
    endloop
  endfacet
  facet normal -0 0 1
    outer loop
      vertex 0.4 0.4 0.45
      vertex 0.45 0 0.45
      vertex 0.45 0.4 0.45
    endloop
  endfacet
  facet normal 0 0 1
    outer loop
      vertex 0.0499992 0.4 0.45
      vertex 0.4 0.4 0.45
      vertex 0.0499992 0.45 0.45
    endloop
  endfacet
  facet normal 0 0 1
    outer loop
      vertex 0.4 0.4 0.45
      vertex 0.0499992 0.4 0.45
      vertex 0.45 0 0.45
    endloop
  endfacet
  facet normal 0 0 1
    outer loop
      vertex 0 0 0.45
      vertex 0.0499992 0.4 0.45
      vertex 0 0.4 0.45
    endloop
  endfacet
  facet normal 0 0 1
    outer loop
      vertex 0.0499992 0.4 0.45
      vertex 0 0 0.45
      vertex 0.45 0 0.45
    endloop
  endfacet
  facet normal 1 -0 0
    outer loop
      vertex 0.0499992 0 0.4
      vertex 0.0499992 0.0499992 0
      vertex 0.0499992 0.0499992 0.4
    endloop
  endfacet
  facet normal 1 0 0
    outer loop
      vertex 0.0499992 0.0499992 0
      vertex 0.0499992 0 0.4
      vertex 0.0499992 0 0
    endloop
  endfacet
  facet normal 0 1 -0
    outer loop
      vertex 0.0499992 0.0499992 0
      vertex 0 0.0499992 0.4
      vertex 0.0499992 0.0499992 0.4
    endloop
  endfacet
  facet normal 0 1 0
    outer loop
      vertex 0 0.0499992 0.4
      vertex 0.0499992 0.0499992 0
      vertex 0 0.0499992 0
    endloop
  endfacet
  facet normal 0 0 -1
    outer loop
      vertex 0 0 0
      vertex 0.0499992 0.0499992 0
      vertex 0.0499992 0 0
    endloop
  endfacet
  facet normal -0 0 -1
    outer loop
      vertex 0.0499992 0.0499992 0
      vertex 0 0 0
      vertex 0 0.0499992 0
    endloop
  endfacet
  facet normal 0 -1 0
    outer loop
      vertex 0 0 0.45
      vertex 0.0499992 0 0.4
      vertex 0.45 0 0.45
    endloop
  endfacet
  facet normal 0 -1 0
    outer loop
      vertex 0 0 0
      vertex 0.0499992 0 0.4
      vertex 0 0 0.45
    endloop
  endfacet
  facet normal 0 -1 -0
    outer loop
      vertex 0.0499992 0 0.4
      vertex 0 0 0
      vertex 0.0499992 0 0
    endloop
  endfacet
  facet normal 0 -1 0
    outer loop
      vertex 0.4 0 0.4
      vertex 0.45 0 0.45
      vertex 0.0499992 0 0.4
    endloop
  endfacet
  facet normal 0 -1 0
    outer loop
      vertex 0.45 0 0
      vertex 0.4 0 0.4
      vertex 0.4 0 0
    endloop
  endfacet
  facet normal 0 -1 0
    outer loop
      vertex 0.4 0 0.4
      vertex 0.45 0 0
      vertex 0.45 0 0.45
    endloop
  endfacet
  facet normal -1 0 0
    outer loop
      vertex 0.4 0 0
      vertex 0.4 0.0499992 0.4
      vertex 0.4 0.0499992 0
    endloop
  endfacet
  facet normal -1 -0 0
    outer loop
      vertex 0.4 0.0499992 0.4
      vertex 0.4 0 0
      vertex 0.4 0 0.4
    endloop
  endfacet
  facet normal 1 0 0
    outer loop
      vertex 0.45 0.4 0.45
      vertex 0.45 0.0499992 0.4
      vertex 0.45 0.4 0.4
    endloop
  endfacet
  facet normal 1 -0 0
    outer loop
      vertex 0.45 0 0.45
      vertex 0.45 0.0499992 0.4
      vertex 0.45 0.4 0.45
    endloop
  endfacet
  facet normal 1 0 0
    outer loop
      vertex 0.45 0 0
      vertex 0.45 0.0499992 0.4
      vertex 0.45 0 0.45
    endloop
  endfacet
  facet normal 1 0 0
    outer loop
      vertex 0.45 0.0499992 0.4
      vertex 0.45 0 0
      vertex 0.45 0.0499992 0
    endloop
  endfacet
  facet normal 1 0 0
    outer loop
      vertex 0.45 0.4 0.45
      vertex 0.45 0.45 0.799999
      vertex 0.45 0.4 0.799999
    endloop
  endfacet
  facet normal 1 0 0
    outer loop
      vertex 0.45 0.4 0.4
      vertex 0.45 0.45 0.799999
      vertex 0.45 0.4 0.45
    endloop
  endfacet
  facet normal 1 0 0
    outer loop
      vertex 0.45 0.45 0.799999
      vertex 0.45 0.4 0.4
      vertex 0.45 0.45 0
    endloop
  endfacet
  facet normal 1 0 0
    outer loop
      vertex 0.45 0.45 0
      vertex 0.45 0.4 0.4
      vertex 0.45 0.4 0
    endloop
  endfacet
  facet normal 0 0 -1
    outer loop
      vertex 0.4 0 0
      vertex 0.45 0.0499992 0
      vertex 0.45 0 0
    endloop
  endfacet
  facet normal -0 0 -1
    outer loop
      vertex 0.45 0.0499992 0
      vertex 0.4 0 0
      vertex 0.4 0.0499992 0
    endloop
  endfacet
  facet normal 0 1 -0
    outer loop
      vertex 0.45 0.0499992 0
      vertex 0.4 0.0499992 0.4
      vertex 0.45 0.0499992 0.4
    endloop
  endfacet
  facet normal 0 1 0
    outer loop
      vertex 0.4 0.0499992 0.4
      vertex 0.45 0.0499992 0
      vertex 0.4 0.0499992 0
    endloop
  endfacet
  facet normal -1 0 0
    outer loop
      vertex 0.4 0.4 0
      vertex 0.4 0.45 0.4
      vertex 0.4 0.45 0
    endloop
  endfacet
  facet normal -1 -0 0
    outer loop
      vertex 0.4 0.45 0.4
      vertex 0.4 0.4 0
      vertex 0.4 0.4 0.4
    endloop
  endfacet
  facet normal -1 0 0
    outer loop
      vertex 0.4 0.4 0.45
      vertex 0.4 0.45 0.5
      vertex 0.4 0.45 0.45
    endloop
  endfacet
  facet normal -1 -0 0
    outer loop
      vertex 0.4 0.45 0.5
      vertex 0.4 0.4 0.45
      vertex 0.4 0.4 0.5
    endloop
  endfacet
  facet normal -0 0 1
    outer loop
      vertex 0 0.45 0.799999
      vertex 0.45 0.4 0.799999
      vertex 0.45 0.45 0.799999
    endloop
  endfacet
  facet normal 0 0 1
    outer loop
      vertex 0.45 0.4 0.799999
      vertex 0 0.45 0.799999
      vertex 0 0.4 0.799999
    endloop
  endfacet
  facet normal 0 0 -1
    outer loop
      vertex 0.4 0.4 0
      vertex 0.45 0.45 0
      vertex 0.45 0.4 0
    endloop
  endfacet
  facet normal -0 0 -1
    outer loop
      vertex 0.45 0.45 0
      vertex 0.4 0.4 0
      vertex 0.4 0.45 0
    endloop
  endfacet
  facet normal 0 -1 0
    outer loop
      vertex 0 0.4 0.799999
      vertex 0.0499992 0.4 0.5
      vertex 0.45 0.4 0.799999
    endloop
  endfacet
  facet normal 0 -1 0
    outer loop
      vertex 0 0.4 0.45
      vertex 0.0499992 0.4 0.5
      vertex 0 0.4 0.799999
    endloop
  endfacet
  facet normal 0 -1 -0
    outer loop
      vertex 0.0499992 0.4 0.5
      vertex 0 0.4 0.45
      vertex 0.0499992 0.4 0.45
    endloop
  endfacet
  facet normal 0 -1 0
    outer loop
      vertex 0.4 0.4 0.5
      vertex 0.45 0.4 0.799999
      vertex 0.0499992 0.4 0.5
    endloop
  endfacet
  facet normal 0 -1 0
    outer loop
      vertex 0.45 0.4 0.45
      vertex 0.4 0.4 0.5
      vertex 0.4 0.4 0.45
    endloop
  endfacet
  facet normal 0 -1 0
    outer loop
      vertex 0.4 0.4 0.5
      vertex 0.45 0.4 0.45
      vertex 0.45 0.4 0.799999
    endloop
  endfacet
  facet normal 0 -1 0
    outer loop
      vertex 0 0.4 0
      vertex 0.0499992 0.4 0.4
      vertex 0 0.4 0.4
    endloop
  endfacet
  facet normal 0 -1 -0
    outer loop
      vertex 0.0499992 0.4 0.4
      vertex 0 0.4 0
      vertex 0.0499992 0.4 0
    endloop
  endfacet
  facet normal 0 -1 0
    outer loop
      vertex 0.4 0.4 0
      vertex 0.45 0.4 0.4
      vertex 0.4 0.4 0.4
    endloop
  endfacet
  facet normal 0 -1 -0
    outer loop
      vertex 0.45 0.4 0.4
      vertex 0.4 0.4 0
      vertex 0.45 0.4 0
    endloop
  endfacet
  facet normal 0 1 0
    outer loop
      vertex 0.45 0.45 0.799999
      vertex 0.4 0.45 0.5
      vertex 0 0.45 0.799999
    endloop
  endfacet
  facet normal 0 1 0
    outer loop
      vertex 0.45 0.45 0.799999
      vertex 0.4 0.45 0.45
      vertex 0.4 0.45 0.5
    endloop
  endfacet
  facet normal 0 1 0
    outer loop
      vertex 0.4 0.45 0.45
      vertex 0.4 0.45 0.4
      vertex 0.0499992 0.45 0.45
    endloop
  endfacet
  facet normal 0 1 0
    outer loop
      vertex 0.45 0.45 0.799999
      vertex 0.4 0.45 0.4
      vertex 0.4 0.45 0.45
    endloop
  endfacet
  facet normal 0 1 -0
    outer loop
      vertex 0.45 0.45 0
      vertex 0.4 0.45 0.4
      vertex 0.45 0.45 0.799999
    endloop
  endfacet
  facet normal 0 1 0
    outer loop
      vertex 0.4 0.45 0.4
      vertex 0.45 0.45 0
      vertex 0.4 0.45 0
    endloop
  endfacet
  facet normal 0 1 -0
    outer loop
      vertex 0.0499992 0.45 0.5
      vertex 0 0.45 0.799999
      vertex 0.4 0.45 0.5
    endloop
  endfacet
  facet normal 0 1 -0
    outer loop
      vertex 0.0499992 0.45 0.45
      vertex 0 0.45 0.799999
      vertex 0.0499992 0.45 0.5
    endloop
  endfacet
  facet normal 0 1 0
    outer loop
      vertex 0.0499992 0.45 0.4
      vertex 0.0499992 0.45 0.45
      vertex 0.4 0.45 0.4
    endloop
  endfacet
  facet normal 0 1 -0
    outer loop
      vertex 0.0499992 0.45 0.4
      vertex 0 0.45 0.799999
      vertex 0.0499992 0.45 0.45
    endloop
  endfacet
  facet normal 0 1 0
    outer loop
      vertex 0 0.45 0
      vertex 0.0499992 0.45 0.4
      vertex 0.0499992 0.45 0
    endloop
  endfacet
  facet normal 0 1 0
    outer loop
      vertex 0.0499992 0.45 0.4
      vertex 0 0.45 0
      vertex 0 0.45 0.799999
    endloop
  endfacet
  facet normal 1 -0 0
    outer loop
      vertex 0.0499992 0.4 0.4
      vertex 0.0499992 0.45 0
      vertex 0.0499992 0.45 0.4
    endloop
  endfacet
  facet normal 1 0 0
    outer loop
      vertex 0.0499992 0.45 0
      vertex 0.0499992 0.4 0.4
      vertex 0.0499992 0.4 0
    endloop
  endfacet
  facet normal 1 -0 0
    outer loop
      vertex 0.0499992 0.4 0.5
      vertex 0.0499992 0.45 0.45
      vertex 0.0499992 0.45 0.5
    endloop
  endfacet
  facet normal 1 0 0
    outer loop
      vertex 0.0499992 0.45 0.45
      vertex 0.0499992 0.4 0.5
      vertex 0.0499992 0.4 0.45
    endloop
  endfacet
  facet normal 0 0 -1
    outer loop
      vertex 0 0.4 0
      vertex 0.0499992 0.45 0
      vertex 0.0499992 0.4 0
    endloop
  endfacet
  facet normal -0 0 -1
    outer loop
      vertex 0.0499992 0.45 0
      vertex 0 0.4 0
      vertex 0 0.45 0
    endloop
  endfacet
  facet normal 0 0 -1
    outer loop
      vertex 0 0.0499992 0.4
      vertex 0.0499992 0.4 0.4
      vertex 0.0499992 0.0499992 0.4
    endloop
  endfacet
  facet normal -0 0 -1
    outer loop
      vertex 0.0499992 0.4 0.4
      vertex 0 0.0499992 0.4
      vertex 0 0.4 0.4
    endloop
  endfacet
  facet normal 0 0 -1
    outer loop
      vertex 0.0499992 0.0499992 0.4
      vertex 0.4 0.0499992 0.4
      vertex 0.4 0 0.4
    endloop
  endfacet
  facet normal 0 0 -1
    outer loop
      vertex 0.4 0.0499992 0.4
      vertex 0.0499992 0.0499992 0.4
      vertex 0.4 0.4 0.4
    endloop
  endfacet
  facet normal 0 0 -1
    outer loop
      vertex 0.0499992 0.0499992 0.4
      vertex 0.4 0 0.4
      vertex 0.0499992 0 0.4
    endloop
  endfacet
  facet normal 0 0 -1
    outer loop
      vertex 0.0499992 0.4 0.4
      vertex 0.4 0.4 0.4
      vertex 0.0499992 0.0499992 0.4
    endloop
  endfacet
  facet normal 0 0 -1
    outer loop
      vertex 0.4 0.4 0.4
      vertex 0.0499992 0.4 0.4
      vertex 0.4 0.45 0.4
    endloop
  endfacet
  facet normal -0 0 -1
    outer loop
      vertex 0.4 0.45 0.4
      vertex 0.0499992 0.4 0.4
      vertex 0.0499992 0.45 0.4
    endloop
  endfacet
  facet normal 0 0 -1
    outer loop
      vertex 0.4 0.0499992 0.4
      vertex 0.45 0.4 0.4
      vertex 0.45 0.0499992 0.4
    endloop
  endfacet
  facet normal -0 0 -1
    outer loop
      vertex 0.45 0.4 0.4
      vertex 0.4 0.0499992 0.4
      vertex 0.4 0.4 0.4
    endloop
  endfacet
  facet normal 0 0 -1
    outer loop
      vertex 0.0499992 0.4 0.5
      vertex 0.4 0.45 0.5
      vertex 0.4 0.4 0.5
    endloop
  endfacet
  facet normal -0 0 -1
    outer loop
      vertex 0.4 0.45 0.5
      vertex 0.0499992 0.4 0.5
      vertex 0.0499992 0.45 0.5
    endloop
  endfacet
endsolid OpenSCAD_Model
